<svg width="72" height="72" viewBox="0 0 72 72" fill="none" xmlns="http://www.w3.org/2000/svg">
<rect width="72" height="72" rx="8" fill="#D7465E" fill-opacity="0.1"/>
<path d="M38.6667 43C33.3187 57 18.348 43 13 57M44.5 43H48.0023C53.502 43 56.253 43 57.961 41.292C59.669 39.584 59.669 36.833 59.669 31.3333V26.6667C59.669 21.167 59.669 18.416 57.961 16.708C56.253 15 53.5067 15 48.0023 15H38.669C33.1693 15 30.4207 15 28.7127 16.708C27.266 18.1547 27.042 20.3503 27.0093 24.3333" stroke="#D7465E" stroke-width="3.5" stroke-linecap="round" stroke-linejoin="round"/>
<path d="M25.8336 43C29.0552 43 31.6669 40.3884 31.6669 37.1667C31.6669 33.945 29.0552 31.3334 25.8336 31.3334C22.6119 31.3334 20.0002 33.945 20.0002 37.1667C20.0002 40.3884 22.6119 43 25.8336 43Z" stroke="#D7465E" stroke-width="3.5" stroke-linecap="round" stroke-linejoin="round"/>
<path d="M36.3335 24.3334H50.3335M50.3335 33.6667H43.3335" stroke="#D7465E" stroke-width="3.5" stroke-linecap="round" stroke-linejoin="round"/>
</svg>
