<svg width="72" height="72" viewBox="0 0 72 72" fill="none" xmlns="http://www.w3.org/2000/svg">
<rect width="72" height="72" rx="8" fill="#D7465E" fill-opacity="0.1"/>
<path d="M15.75 60L9 25.5L22.5 33L36 12L49.5 33L63 25.5L56.25 60H15.75Z" stroke="#D7465E" stroke-width="4" stroke-linejoin="round"/>
<path d="M36.0001 49.5C37.4323 49.5 38.8058 48.8679 39.8185 47.7426C40.8312 46.6174 41.4001 45.0913 41.4001 43.5C41.4001 41.9087 40.8312 40.3826 39.8185 39.2574C38.8058 38.1321 37.4323 37.5 36.0001 37.5C34.5679 37.5 33.1944 38.1321 32.1817 39.2574C31.169 40.3826 30.6001 41.9087 30.6001 43.5C30.6001 45.0913 31.169 46.6174 32.1817 47.7426C33.1944 48.8679 34.5679 49.5 36.0001 49.5Z" stroke="#D7465E" stroke-width="4" stroke-linejoin="round"/>
</svg>
