<svg width="72" height="72" viewBox="0 0 72 72" fill="none" xmlns="http://www.w3.org/2000/svg">
<rect width="72" height="71.3846" rx="8" fill="#D7465E" fill-opacity="0.1"/>
<path d="M44 28.7692C44 30.9726 43.1571 33.0857 41.6569 34.6437C40.1566 36.2017 38.1217 37.0769 36 37.0769C33.8783 37.0769 31.8434 36.2017 30.3431 34.6437C28.8429 33.0857 28 30.9726 28 28.7692C28 26.5659 28.8429 24.4528 30.3431 22.8948C31.8434 21.3368 33.8783 20.4615 36 20.4615C38.1217 20.4615 40.1566 21.3368 41.6569 22.8948C43.1571 24.4528 44 26.5659 44 28.7692Z" stroke="#D7465E" stroke-width="4" stroke-linecap="round" stroke-linejoin="round"/>
<path d="M52 57.8462C52 60.9062 44.8373 63.3846 36 63.3846C27.1627 63.3846 20 60.9062 20 57.8462M36 8C46.824 8 56 17.4929 56 29.0102C56 40.7102 46.6747 48.9209 38.0613 54.5037C37.4343 54.8784 36.7235 55.0756 36 55.0756C35.2765 55.0756 34.5657 54.8784 33.9387 54.5037C25.3413 48.8655 16 40.7517 16 29.0102C16 17.4929 25.176 8 36 8Z" stroke="#D7465E" stroke-width="4" stroke-linecap="round" stroke-linejoin="round"/>
</svg>
