<svg width="72" height="72" viewBox="0 0 72 72" fill="none" xmlns="http://www.w3.org/2000/svg">
<rect width="72" height="72" rx="8" fill="#D7465E" fill-opacity="0.1"/>
<path d="M49.3344 45.7272C51.2423 45.0347 53.0193 44.0245 54.5903 42.7393L41.9255 30.0744L29.2608 17.4096C27.9755 18.9806 26.9653 20.7577 26.2727 22.6656C25.0993 22.3567 23.9094 22.1139 22.7088 21.9384C23.8788 18.4513 25.9201 15.3207 28.6389 12.8434C31.3578 10.3661 34.6643 8.62414 38.2449 7.78261C41.8256 6.94109 45.5618 7.02789 49.0996 8.03479C52.6373 9.04168 55.8593 10.9353 58.4602 13.5362C61.0611 16.1371 62.9547 19.3591 63.9616 22.8968C64.9685 26.4346 65.0553 30.1708 64.2138 33.7515C63.3723 37.3321 61.6303 40.6386 59.153 43.3575C56.6757 46.0763 53.5451 48.1176 50.0579 49.2877C49.8835 48.0882 49.642 46.8996 49.3344 45.7272ZM45.7451 28.8L57.1355 40.1904C58.7755 38.1924 59.9641 35.8633 60.6196 33.3628C61.2752 30.8624 61.3823 28.2498 60.9336 25.704C59.4072 26.532 57.6576 27 55.7999 27C53.5563 27.0005 51.3681 26.3022 49.5395 25.002L45.7451 28.8ZM57.1355 17.4096L52.1423 22.4028C53.2116 23.0364 54.4644 23.4 55.7999 23.4C57.33 23.4 58.7483 22.9212 59.9147 22.1076C59.2326 20.4095 58.2954 18.8253 57.1355 17.4096ZM45 16.2C45 14.3424 45.4679 12.5928 46.2959 11.0664C43.7502 10.6177 41.1376 10.7248 38.6372 11.3804C36.1367 12.0359 33.8076 13.2245 31.8096 14.8644L43.1999 26.2548L46.9943 22.4568C45.6962 20.6288 44.9992 18.4421 45 16.2ZM48.5999 16.2C48.5999 17.5356 48.9599 18.7848 49.5971 19.8576L54.5903 14.8644C53.1863 13.7124 51.6023 12.7692 49.8887 12.0852C49.0489 13.293 48.5991 14.729 48.5999 16.2ZM12.6 28.8C12.1226 28.8 11.6647 28.9897 11.3272 29.3273C10.9896 29.6648 10.8 30.1227 10.8 30.6V36C10.8 42.6835 13.4549 49.0932 18.1809 53.8191C22.9068 58.5451 29.3165 61.2001 36 61.2001H41.3999C41.8773 61.2001 42.3352 61.0104 42.6727 60.6728C43.0103 60.3353 43.1999 59.8774 43.1999 59.4001V54C43.1999 47.3166 40.545 40.9069 35.819 36.181C31.0931 31.455 24.6834 28.8 18 28.8H12.6ZM7.19995 30.6C7.19995 29.1679 7.76888 27.7944 8.78157 26.7817C9.79427 25.769 11.1678 25.2 12.6 25.2H18C25.6382 25.2 32.9636 28.2343 38.3646 33.6354C43.7657 39.0364 46.7999 46.3618 46.7999 54V59.4001C46.7999 60.8322 46.231 62.2057 45.2183 63.2184C44.2056 64.2311 42.8321 64.8 41.3999 64.8H36C28.3617 64.8 21.0363 61.7658 15.6353 56.3647C10.2342 50.9637 7.19995 43.6383 7.19995 36V30.6ZM22.1256 40.1256C22.2928 39.958 22.4914 39.825 22.7101 39.7343C22.9288 39.6435 23.1632 39.5968 23.4 39.5968C23.6367 39.5968 23.8711 39.6435 24.0898 39.7343C24.3085 39.825 24.5071 39.958 24.6743 40.1256L31.8743 47.3256C32.2123 47.6636 32.4022 48.1221 32.4022 48.6001C32.4022 49.078 32.2123 49.5365 31.8743 49.8745C31.5364 50.2124 31.0779 50.4023 30.6 50.4023C30.122 50.4023 29.6635 50.2124 29.3255 49.8745L22.1256 42.6744C21.9579 42.5072 21.8249 42.3086 21.7342 42.0899C21.6434 41.8713 21.5967 41.6368 21.5967 41.4001C21.5967 41.1633 21.6434 40.9289 21.7342 40.7102C21.8249 40.4915 21.9579 40.2929 22.1256 40.1256Z" fill="#D7465E"/>
</svg>
